<?xml version="1.0" encoding="UTF-8"?>
<svg xmlns="http://www.w3.org/2000/svg" xmlns:xlink="http://www.w3.org/1999/xlink" width="20px" height="20px" viewBox="0 0 20 20" version="1.1">
<g id="surface1">
<path style=" stroke:none;fill-rule:nonzero;fill:rgb(0%,0%,0%);fill-opacity:1;" d="M 15.886719 8.425781 L 16.871094 6.433594 C 16.929688 6.3125 16.925781 6.164062 16.855469 6.042969 C 16.789062 5.921875 16.660156 5.84375 16.523438 5.835938 L 14.308594 5.691406 L 14.164062 3.476562 C 14.15625 3.339844 14.078125 3.214844 13.957031 3.144531 C 13.835938 3.074219 13.691406 3.070312 13.566406 3.132812 L 11.578125 4.113281 L 10.347656 2.269531 C 10.191406 2.039062 9.808594 2.039062 9.652344 2.269531 L 8.421875 4.113281 L 6.433594 3.132812 C 6.308594 3.070312 6.164062 3.074219 6.042969 3.144531 C 5.921875 3.214844 5.84375 3.339844 5.835938 3.476562 L 5.691406 5.691406 L 3.476562 5.835938 C 3.339844 5.84375 3.210938 5.921875 3.144531 6.042969 C 3.074219 6.164062 3.070312 6.308594 3.128906 6.433594 L 4.113281 8.421875 L 2.269531 9.652344 C 2.152344 9.730469 2.082031 9.863281 2.082031 10 C 2.082031 10.140625 2.152344 10.269531 2.269531 10.347656 L 4.113281 11.578125 L 3.128906 13.566406 C 3.070312 13.691406 3.074219 13.839844 3.144531 13.960938 C 3.210938 14.078125 3.339844 14.160156 3.476562 14.167969 L 5.691406 14.308594 L 5.832031 16.523438 C 5.84375 16.664062 5.921875 16.789062 6.039062 16.859375 C 6.160156 16.925781 6.308594 16.929688 6.433594 16.871094 L 8.421875 15.886719 L 9.652344 17.734375 C 9.730469 17.847656 9.859375 17.917969 10 17.917969 C 10.140625 17.917969 10.269531 17.847656 10.347656 17.734375 L 11.578125 15.886719 L 13.566406 16.871094 C 13.691406 16.929688 13.839844 16.925781 13.960938 16.859375 C 14.078125 16.789062 14.15625 16.664062 14.167969 16.523438 L 14.308594 14.308594 L 16.523438 14.167969 C 16.660156 14.15625 16.785156 14.078125 16.855469 13.960938 C 16.925781 13.839844 16.929688 13.691406 16.871094 13.566406 L 15.886719 11.578125 L 17.730469 10.347656 C 17.847656 10.269531 17.917969 10.140625 17.917969 10 C 17.917969 9.859375 17.847656 9.730469 17.730469 9.652344 Z M 15.886719 8.425781 "/>
</g>
</svg>
